<svg id="svg" version="1.1" xmlns="http://www.w3.org/2000/svg" xmlns:xlink="http://www.w3.org/1999/xlink" width="400" height="400" viewBox="0, 0, 400,400"><g id="svgg"><path id="path0" d="M111.200 131.581 C 111.200 132.011,111.367 132.776,111.572 133.281 C 111.777 133.787,113.144 138.700,114.611 144.200 C 117.079 153.452,118.112 157.272,119.262 161.400 C 119.508 162.280,119.848 163.540,120.018 164.200 C 120.334 165.423,120.705 166.796,121.588 170.000 C 121.860 170.990,122.245 172.213,122.442 172.719 C 122.639 173.224,122.800 174.069,122.800 174.595 C 122.800 175.122,122.960 175.652,123.156 175.773 C 123.351 175.894,123.605 176.579,123.719 177.296 C 123.832 178.013,124.135 179.320,124.391 180.200 C 124.646 181.080,124.947 182.250,125.058 182.800 C 125.169 183.350,125.413 184.160,125.600 184.600 C 125.787 185.040,126.031 185.850,126.142 186.400 C 126.253 186.950,126.524 188.030,126.745 188.800 C 126.965 189.570,127.530 191.640,128.000 193.400 C 128.470 195.160,129.007 197.140,129.193 197.800 C 130.040 200.810,130.857 203.799,132.200 208.800 C 132.997 211.770,133.923 215.190,134.256 216.400 C 134.590 217.610,135.221 219.950,135.659 221.600 C 136.097 223.250,136.613 225.140,136.805 225.800 C 137.474 228.095,138.055 230.209,138.400 231.600 C 138.591 232.370,138.951 233.720,139.201 234.600 C 139.451 235.480,139.747 236.650,139.858 237.200 C 139.969 237.750,140.213 238.560,140.400 239.000 C 140.587 239.440,140.831 240.250,140.942 240.800 C 141.133 241.744,141.515 243.162,142.449 246.400 C 142.671 247.170,143.009 248.430,143.200 249.200 C 143.391 249.970,143.729 251.230,143.951 252.000 C 144.443 253.707,144.876 255.272,145.960 259.263 C 146.417 260.947,146.969 262.793,147.186 263.364 L 147.581 264.401 256.290 264.301 L 365.000 264.200 365.124 262.700 C 365.192 261.875,365.417 261.200,365.624 261.200 C 365.831 261.200,366.000 260.480,366.000 259.600 C 366.000 258.720,366.180 258.000,366.400 258.000 C 366.620 258.000,366.800 257.608,366.800 257.128 C 366.800 256.208,367.460 253.872,368.049 252.705 C 368.242 252.323,368.400 251.468,368.400 250.805 C 368.400 250.142,368.580 249.600,368.800 249.600 C 369.020 249.600,369.200 248.981,369.200 248.224 C 369.200 247.467,369.380 246.736,369.600 246.600 C 369.820 246.464,370.000 245.823,370.000 245.176 C 370.000 244.529,370.180 244.000,370.400 244.000 C 370.620 244.000,370.800 243.280,370.800 242.400 C 370.800 241.520,370.980 240.800,371.200 240.800 C 371.420 240.800,371.600 240.271,371.600 239.624 C 371.600 238.977,371.760 238.348,371.956 238.227 C 372.151 238.106,372.409 237.421,372.527 236.704 C 372.870 234.631,373.235 233.063,373.576 232.200 C 374.135 230.786,375.200 226.101,375.200 225.058 C 375.200 224.502,375.380 223.936,375.600 223.800 C 375.820 223.664,376.000 223.034,376.000 222.400 C 376.000 221.766,376.180 221.136,376.400 221.000 C 376.620 220.864,376.800 220.223,376.800 219.576 C 376.800 218.929,376.980 218.400,377.200 218.400 C 377.420 218.400,377.600 217.680,377.600 216.800 C 377.600 215.920,377.780 215.200,378.000 215.200 C 378.220 215.200,378.400 214.581,378.400 213.824 C 378.400 213.067,378.580 212.336,378.800 212.200 C 379.020 212.064,379.200 211.423,379.200 210.776 C 379.200 210.129,379.380 209.600,379.600 209.600 C 379.820 209.600,380.000 208.981,380.000 208.224 C 380.000 207.467,380.180 206.736,380.400 206.600 C 380.620 206.464,380.800 205.834,380.800 205.200 C 380.800 204.566,380.980 203.936,381.200 203.800 C 381.420 203.664,381.600 202.933,381.600 202.176 C 381.600 201.419,381.780 200.800,382.000 200.800 C 382.220 200.800,382.400 200.170,382.400 199.400 C 382.400 198.630,382.580 198.000,382.800 198.000 C 383.020 198.000,383.200 197.381,383.200 196.624 C 383.200 195.867,383.380 195.136,383.600 195.000 C 383.820 194.864,384.000 194.223,384.000 193.576 C 384.000 192.929,384.180 192.400,384.400 192.400 C 384.620 192.400,384.800 191.781,384.800 191.024 C 384.800 190.267,384.980 189.536,385.200 189.400 C 385.420 189.264,385.600 188.533,385.600 187.776 C 385.600 187.019,385.780 186.400,386.000 186.400 C 386.220 186.400,386.400 185.871,386.400 185.224 C 386.400 184.577,386.580 183.936,386.800 183.800 C 387.020 183.664,387.200 182.933,387.200 182.176 C 387.200 181.419,387.380 180.800,387.600 180.800 C 387.820 180.800,388.000 180.181,388.000 179.424 C 388.000 178.667,388.180 177.936,388.400 177.800 C 388.620 177.664,388.800 177.034,388.800 176.400 C 388.800 175.766,388.980 175.136,389.200 175.000 C 389.420 174.864,389.600 174.234,389.600 173.600 C 389.600 172.966,389.780 172.336,390.000 172.200 C 390.220 172.064,390.400 171.344,390.400 170.600 C 390.400 169.856,390.596 169.126,390.835 168.978 C 391.074 168.831,391.181 168.370,391.072 167.955 C 390.964 167.540,391.038 167.100,391.238 166.977 C 391.437 166.854,391.600 166.043,391.600 165.176 C 391.600 164.309,391.780 163.600,392.000 163.600 C 392.220 163.600,392.400 162.981,392.400 162.224 C 392.400 161.467,392.580 160.736,392.800 160.600 C 393.020 160.464,393.200 159.823,393.200 159.176 C 393.200 158.529,393.380 158.000,393.600 158.000 C 393.820 158.000,394.000 157.370,394.000 156.600 C 394.000 155.830,394.180 155.200,394.400 155.200 C 394.620 155.200,394.800 154.581,394.800 153.824 C 394.800 153.067,394.980 152.336,395.200 152.200 C 395.420 152.064,395.600 151.423,395.600 150.776 C 395.600 150.129,395.780 149.600,396.000 149.600 C 396.220 149.600,396.400 148.880,396.400 148.000 C 396.400 147.120,396.580 146.400,396.800 146.400 C 397.020 146.400,397.200 145.680,397.200 144.800 C 397.200 143.920,397.380 143.200,397.600 143.200 C 397.820 143.200,398.000 142.660,398.000 142.000 C 398.000 141.340,398.180 140.800,398.400 140.800 C 398.620 140.800,398.800 140.185,398.800 139.433 C 398.800 138.682,398.968 138.007,399.174 137.933 C 399.379 137.860,399.674 136.225,399.829 134.300 L 400.110 130.800 390.098 130.800 C 381.567 130.800,380.052 130.889,379.855 131.400 C 379.519 132.277,364.585 132.266,363.424 131.387 C 362.254 130.503,338.335 130.514,337.600 131.400 C 336.858 132.294,321.288 132.294,320.945 131.400 C 320.602 130.508,306.340 130.508,305.600 131.400 C 305.189 131.895,303.758 132.000,297.400 132.000 C 291.042 132.000,289.611 131.895,289.200 131.400 C 288.794 130.911,287.483 130.800,282.122 130.800 C 276.807 130.800,275.428 130.915,274.943 131.400 C 274.051 132.292,258.887 132.292,258.545 131.400 C 258.341 130.870,251.391 130.800,199.329 130.800 C 147.430 130.800,140.271 130.872,139.743 131.400 C 139.251 131.892,137.745 132.000,131.359 132.000 C 124.809 132.000,123.538 131.905,123.345 131.400 C 122.942 130.350,111.200 130.525,111.200 131.581 M339.400 157.262 C 346.063 160.937,345.448 169.942,338.372 172.320 C 336.248 173.034,166.711 173.014,164.299 172.300 C 156.288 169.928,157.143 157.803,165.400 156.678 C 169.830 156.074,338.272 156.640,339.400 157.262 M333.651 190.165 C 339.871 192.769,340.218 201.420,334.237 204.779 C 332.777 205.600,332.728 205.600,251.426 205.600 L 170.076 205.600 168.384 204.700 C 162.638 201.643,162.702 193.276,168.493 190.467 L 170.200 189.640 251.251 189.620 C 320.173 189.603,332.504 189.685,333.651 190.165 M327.290 222.900 C 333.732 224.821,335.149 233.496,329.646 237.318 L 327.800 238.600 251.400 238.600 L 175.000 238.600 173.200 237.397 C 167.464 233.564,168.680 225.549,175.396 222.930 C 177.203 222.226,324.929 222.196,327.290 222.900 " stroke="none" fill="#b3f3fb" fill-rule="evenodd"></path><path id="path1" d="M127.900 131.498 C 129.935 131.571,133.265 131.571,135.300 131.498 C 137.335 131.425,135.670 131.366,131.600 131.366 C 127.530 131.366,125.865 131.425,127.900 131.498 M262.921 131.498 C 265.077 131.571,268.497 131.570,270.521 131.498 C 272.544 131.425,270.780 131.366,266.600 131.367 C 262.420 131.367,260.764 131.426,262.921 131.498 M293.721 131.498 C 295.877 131.571,299.297 131.570,301.321 131.498 C 303.344 131.425,301.580 131.366,297.400 131.367 C 293.220 131.367,291.564 131.426,293.721 131.498 M325.500 131.498 C 327.535 131.571,330.865 131.571,332.900 131.498 C 334.935 131.425,333.270 131.366,329.200 131.366 C 325.130 131.366,323.465 131.425,325.500 131.498 M368.121 131.498 C 370.277 131.571,373.697 131.570,375.721 131.498 C 377.744 131.425,375.980 131.366,371.800 131.367 C 367.620 131.367,365.964 131.426,368.121 131.498 M117.444 157.400 C 117.773 158.871,118.002 159.190,117.994 158.167 C 117.991 157.745,117.805 157.130,117.582 156.800 C 117.285 156.362,117.248 156.524,117.444 157.400 M208.932 157.100 C 232.435 157.157,270.775 157.157,294.132 157.100 C 317.489 157.043,298.260 156.996,251.400 156.996 C 204.540 156.996,185.429 157.043,208.932 157.100 M159.324 164.600 C 159.326 165.920,159.401 166.412,159.490 165.693 C 159.579 164.974,159.577 163.894,159.486 163.293 C 159.395 162.692,159.322 163.280,159.324 164.600 M120.806 169.833 C 120.809 170.255,120.995 170.870,121.218 171.200 C 121.515 171.638,121.552 171.476,121.356 170.600 C 121.027 169.129,120.798 168.810,120.806 169.833 M340.200 170.650 C 339.481 171.262,339.334 171.505,339.833 171.257 C 340.566 170.893,341.941 169.576,341.549 169.614 C 341.467 169.622,340.860 170.088,340.200 170.650 M164.876 172.060 C 165.384 172.203,204.320 172.295,251.400 172.265 C 298.480 172.234,329.350 172.162,320.000 172.105 C 279.316 171.857,164.035 171.823,164.876 172.060 M121.606 172.633 C 121.609 173.055,121.795 173.670,122.018 174.000 C 122.315 174.438,122.352 174.276,122.156 173.400 C 121.827 171.929,121.598 171.610,121.606 172.633 M334.200 191.057 C 336.237 192.864,336.987 193.391,336.202 192.463 C 335.766 191.948,335.047 191.341,334.604 191.114 C 334.162 190.887,333.980 190.862,334.200 191.057 M338.093 197.600 C 338.093 198.370,338.175 198.685,338.276 198.300 C 338.376 197.915,338.376 197.285,338.276 196.900 C 338.175 196.515,338.093 196.830,338.093 197.600 M335.775 202.900 L 334.600 204.200 335.900 203.025 C 336.615 202.379,337.200 201.794,337.200 201.725 C 337.200 201.416,336.870 201.688,335.775 202.900 M333.000 204.614 C 331.995 205.098,331.963 205.153,332.800 204.951 C 333.350 204.819,333.971 204.550,334.180 204.355 C 334.698 203.871,334.414 203.933,333.000 204.614 M211.932 205.500 C 233.784 205.557,269.424 205.557,291.132 205.500 C 312.839 205.443,294.960 205.396,251.400 205.396 C 207.840 205.396,190.079 205.443,211.932 205.500 M135.444 223.400 C 135.773 224.871,136.002 225.190,135.994 224.167 C 135.991 223.745,135.805 223.130,135.582 222.800 C 135.285 222.362,135.248 222.524,135.444 223.400 M176.076 223.140 C 175.568 223.283,209.357 223.400,251.161 223.400 C 292.966 223.400,326.862 223.278,326.485 223.128 C 325.609 222.780,177.311 222.792,176.076 223.140 M136.406 227.033 C 136.409 227.455,136.595 228.070,136.818 228.400 C 137.115 228.838,137.152 228.676,136.956 227.800 C 136.627 226.329,136.398 226.010,136.406 227.033 M332.276 229.846 C 332.540 232.555,332.732 232.933,332.762 230.800 C 332.776 229.810,332.630 228.751,332.437 228.446 C 332.221 228.105,332.159 228.642,332.276 229.846 M137.206 229.833 C 137.209 230.255,137.395 230.870,137.618 231.200 C 137.915 231.638,137.952 231.476,137.756 230.600 C 137.427 229.129,137.198 228.810,137.206 229.833 M170.109 230.800 C 170.109 231.790,170.187 232.195,170.282 231.700 C 170.378 231.205,170.378 230.395,170.282 229.900 C 170.187 229.405,170.109 229.810,170.109 230.800 M171.200 234.925 C 171.200 234.994,171.785 235.579,172.500 236.225 L 173.800 237.400 172.625 236.100 C 171.530 234.888,171.200 234.616,171.200 234.925 M138.806 235.833 C 138.809 236.255,138.995 236.870,139.218 237.200 C 139.515 237.638,139.552 237.476,139.356 236.600 C 139.027 235.129,138.798 234.810,138.806 235.833 M213.468 238.300 C 234.186 238.357,268.206 238.357,289.068 238.300 C 309.931 238.243,292.980 238.196,251.400 238.196 C 209.820 238.196,192.751 238.243,213.468 238.300 " stroke="none" fill="#3749a7" fill-rule="evenodd"></path><path id="path2" d="M305.092 131.236 C 304.653 131.492,301.521 131.601,296.830 131.524 C 292.675 131.456,289.359 131.535,289.461 131.700 C 289.852 132.331,305.062 132.048,305.600 131.400 C 306.179 130.702,306.070 130.667,305.092 131.236 M336.800 131.253 C 336.212 131.489,332.725 131.602,328.338 131.527 C 324.233 131.457,320.959 131.535,321.061 131.700 C 321.453 132.331,337.062 132.048,337.600 131.400 C 338.170 130.713,338.150 130.710,336.800 131.253 M123.462 131.700 C 123.701 132.088,138.852 132.082,139.462 131.694 C 139.716 131.532,136.178 131.400,131.600 131.400 C 127.022 131.400,123.360 131.535,123.462 131.700 M258.662 131.700 C 258.901 132.088,274.052 132.082,274.662 131.694 C 274.917 131.532,271.379 131.400,266.801 131.400 C 262.223 131.400,258.560 131.535,258.662 131.700 M363.862 131.700 C 363.964 131.865,367.536 132.000,371.800 132.000 C 376.064 132.000,379.636 131.865,379.738 131.700 C 379.840 131.535,376.268 131.400,371.800 131.400 C 367.332 131.400,363.760 131.535,363.862 131.700 M110.821 131.757 C 110.809 131.953,111.164 133.393,111.608 134.957 C 112.053 136.521,112.589 138.430,112.800 139.200 C 113.011 139.970,113.529 141.860,113.951 143.400 C 114.373 144.940,114.835 146.716,114.978 147.347 C 115.122 147.978,115.332 148.401,115.446 148.287 C 115.561 148.173,114.817 144.957,113.794 141.140 C 112.063 134.681,110.869 130.915,110.821 131.757 M115.634 149.400 C 115.622 149.840,115.787 150.470,116.000 150.800 C 116.514 151.595,116.514 150.596,116.000 149.400 L 115.656 148.600 115.634 149.400 M116.456 152.200 C 116.456 152.640,116.611 153.360,116.800 153.800 L 117.144 154.600 117.144 153.800 C 117.144 153.360,116.989 152.640,116.800 152.200 L 116.456 151.400 116.456 152.200 M117.234 155.400 C 117.222 155.840,117.387 156.470,117.600 156.800 C 118.114 157.595,118.114 156.596,117.600 155.400 L 117.256 154.600 117.234 155.400 M165.400 156.678 C 160.757 157.310,157.672 162.019,158.882 166.626 C 159.448 168.785,162.210 172.003,163.489 171.996 C 163.919 171.994,163.541 171.597,162.535 170.994 C 157.864 168.195,158.127 160.712,162.993 157.921 L 164.600 157.000 251.000 157.000 C 298.520 157.000,337.892 157.138,338.493 157.306 C 344.717 159.048,345.305 168.276,339.400 171.534 C 338.818 171.856,338.767 171.979,339.215 171.988 C 339.553 171.995,340.399 171.505,341.095 170.900 C 345.670 166.919,344.844 160.264,339.400 157.262 C 338.272 156.640,169.830 156.074,165.400 156.678 M118.056 158.200 C 118.056 158.640,118.211 159.360,118.400 159.800 L 118.744 160.600 118.744 159.800 C 118.744 159.360,118.589 158.640,118.400 158.200 L 118.056 157.400 118.056 158.200 M118.834 161.200 C 118.846 161.530,119.011 162.160,119.200 162.600 L 119.544 163.400 119.566 162.600 C 119.578 162.160,119.413 161.530,119.200 161.200 C 118.855 160.667,118.815 160.667,118.834 161.200 M119.612 164.200 C 119.612 164.640,119.787 165.270,120.000 165.600 C 120.321 166.097,120.388 166.062,120.388 165.400 C 120.388 164.960,120.213 164.330,120.000 164.000 C 119.679 163.503,119.612 163.538,119.612 164.200 M120.434 167.200 C 120.446 167.530,120.611 168.160,120.800 168.600 L 121.144 169.400 121.166 168.600 C 121.178 168.160,121.013 167.530,120.800 167.200 C 120.455 166.667,120.415 166.667,120.434 167.200 M121.234 170.000 C 121.246 170.330,121.411 170.960,121.600 171.400 L 121.944 172.200 121.966 171.400 C 121.978 170.960,121.813 170.330,121.600 170.000 C 121.255 169.467,121.215 169.467,121.234 170.000 M164.938 172.494 C 165.542 172.878,337.258 172.878,337.862 172.494 C 338.116 172.332,299.208 172.200,251.400 172.200 C 203.592 172.200,164.684 172.332,164.938 172.494 M122.046 172.800 C 122.065 173.130,122.224 173.850,122.400 174.400 L 122.720 175.400 122.754 174.400 C 122.773 173.850,122.613 173.130,122.400 172.800 C 122.055 172.267,122.016 172.267,122.046 172.800 M122.828 176.076 C 122.896 177.344,123.542 178.254,123.572 177.124 C 123.587 176.532,123.420 175.936,123.200 175.800 C 122.980 175.664,122.813 175.788,122.828 176.076 M123.629 178.600 C 123.615 178.820,123.949 180.170,124.371 181.600 C 124.793 183.030,125.153 183.853,125.169 183.428 C 125.211 182.375,123.692 177.613,123.629 178.600 M125.425 185.466 C 125.566 186.090,126.016 187.770,126.424 189.200 C 127.210 191.953,127.959 194.702,129.259 199.600 C 129.697 201.250,130.210 203.140,130.400 203.800 C 130.590 204.460,131.107 206.414,131.549 208.143 C 132.275 210.984,132.802 212.341,132.799 211.367 C 132.798 210.962,131.108 204.606,129.193 197.800 C 129.007 197.140,128.470 195.160,128.000 193.400 C 127.530 191.640,126.960 189.570,126.735 188.800 C 126.510 188.030,126.232 186.813,126.119 186.096 C 126.005 185.379,125.744 184.689,125.540 184.563 C 125.323 184.429,125.275 184.805,125.425 185.466 M168.600 190.421 C 166.869 191.275,164.821 193.433,164.823 194.400 C 164.824 194.813,164.962 194.751,165.266 194.200 C 166.069 192.744,167.781 191.143,169.149 190.567 C 170.298 190.084,182.473 190.000,251.465 190.000 C 342.501 190.000,334.055 189.713,336.558 192.889 C 337.126 193.610,337.593 194.002,337.596 193.759 C 337.603 192.998,335.269 190.839,333.754 190.207 C 331.173 189.128,170.799 189.337,168.600 190.421 M337.628 194.676 C 337.718 195.715,338.344 196.596,338.372 195.724 C 338.387 195.242,338.220 194.736,338.000 194.600 C 337.780 194.464,337.613 194.498,337.628 194.676 M164.243 195.833 C 163.224 198.487,166.218 204.800,168.494 204.800 C 168.766 204.800,168.416 204.395,167.715 203.900 C 165.742 202.506,164.667 200.259,164.667 197.527 C 164.667 195.035,164.620 194.849,164.243 195.833 M337.685 200.277 C 337.355 201.376,336.609 202.443,335.519 203.377 C 334.604 204.159,334.042 204.800,334.269 204.800 C 335.515 204.800,338.578 200.619,338.318 199.273 C 338.246 198.903,337.962 199.354,337.685 200.277 M169.415 205.224 C 169.543 205.431,170.297 205.600,171.090 205.600 C 172.861 205.600,172.700 205.390,170.691 205.080 C 169.791 204.941,169.276 204.999,169.415 205.224 M331.600 205.200 L 330.200 205.495 331.676 205.547 C 332.488 205.576,333.264 205.420,333.400 205.200 C 333.668 204.766,333.661 204.766,331.600 205.200 M132.834 212.600 C 132.822 213.040,132.987 213.670,133.200 214.000 C 133.714 214.795,133.714 213.796,133.200 212.600 L 132.856 211.800 132.834 212.600 M133.656 215.400 C 133.656 215.840,133.811 216.560,134.000 217.000 L 134.344 217.800 134.344 217.000 C 134.344 216.560,134.189 215.840,134.000 215.400 L 133.656 214.600 133.656 215.400 M134.434 218.400 C 134.446 218.730,134.611 219.360,134.800 219.800 L 135.144 220.600 135.166 219.800 C 135.178 219.360,135.013 218.730,134.800 218.400 C 134.455 217.867,134.415 217.867,134.434 218.400 M135.234 221.400 C 135.222 221.840,135.387 222.470,135.600 222.800 C 136.114 223.595,136.114 222.596,135.600 221.400 L 135.256 220.600 135.234 221.400 M175.396 222.930 C 170.309 224.914,168.156 229.925,170.471 234.394 C 171.439 236.263,174.024 238.364,175.385 238.387 C 175.860 238.395,175.475 238.045,174.408 237.500 C 168.647 234.557,168.541 226.808,174.221 223.828 C 176.136 222.824,323.059 222.263,326.800 223.246 C 329.236 223.886,330.925 225.215,331.926 227.279 C 332.385 228.226,332.768 228.730,332.779 228.400 C 332.832 226.661,329.935 223.808,327.172 222.880 C 325.130 222.194,177.158 222.243,175.396 222.930 M136.034 224.400 C 136.046 224.730,136.211 225.360,136.400 225.800 L 136.744 226.600 136.766 225.800 C 136.778 225.360,136.613 224.730,136.400 224.400 C 136.055 223.867,136.015 223.867,136.034 224.400 M136.834 227.200 C 136.846 227.530,137.011 228.160,137.200 228.600 L 137.544 229.400 137.566 228.600 C 137.578 228.160,137.413 227.530,137.200 227.200 C 136.855 226.667,136.815 226.667,136.834 227.200 M332.901 230.600 C 332.905 231.480,332.987 231.793,333.083 231.295 C 333.179 230.798,333.175 230.078,333.075 229.695 C 332.975 229.313,332.896 229.720,332.901 230.600 M137.646 230.000 C 137.665 230.330,137.824 231.050,138.000 231.600 L 138.320 232.600 138.354 231.600 C 138.373 231.050,138.213 230.330,138.000 230.000 C 137.655 229.467,137.616 229.467,137.646 230.000 M332.268 233.272 C 331.872 234.849,330.053 236.814,328.217 237.648 C 327.327 238.052,326.928 238.386,327.328 238.391 C 329.286 238.415,333.213 234.239,332.695 232.685 C 332.607 232.422,332.415 232.686,332.268 233.272 M138.434 233.200 C 138.446 233.530,138.611 234.160,138.800 234.600 L 139.144 235.400 139.166 234.600 C 139.178 234.160,139.013 233.530,138.800 233.200 C 138.455 232.667,138.415 232.667,138.434 233.200 M139.246 236.000 C 139.265 236.330,139.424 237.050,139.600 237.600 L 139.920 238.600 139.954 237.600 C 139.973 237.050,139.813 236.330,139.600 236.000 C 139.255 235.467,139.216 235.467,139.246 236.000 M213.900 238.700 C 234.415 238.757,267.985 238.757,288.500 238.700 C 309.015 238.643,292.230 238.596,251.200 238.596 C 210.170 238.596,193.385 238.643,213.900 238.700 M140.240 239.866 C 140.608 241.399,140.800 241.544,140.800 240.290 C 140.800 239.717,140.613 239.132,140.384 238.990 C 140.111 238.821,140.062 239.123,140.240 239.866 M140.827 241.817 C 140.812 242.047,141.252 243.847,141.804 245.817 C 143.082 250.377,143.400 251.527,144.400 255.200 C 145.963 260.943,146.095 261.407,146.511 262.600 C 147.442 265.277,147.474 264.278,146.556 261.149 C 146.016 259.307,145.379 257.080,145.141 256.200 C 144.902 255.320,144.569 254.150,144.400 253.600 C 144.231 253.050,143.880 251.790,143.619 250.800 C 142.067 244.898,141.561 243.111,141.185 242.200 C 141.003 241.760,140.842 241.588,140.827 241.817 " stroke="none" fill="#6484c4" fill-rule="evenodd"></path><path id="path3" d="M192.000 32.800 C 192.000 33.020,191.280 33.200,190.400 33.200 C 189.520 33.200,188.800 33.380,188.800 33.600 C 188.800 33.820,188.260 34.000,187.600 34.000 C 186.940 34.000,186.400 34.180,186.400 34.400 C 186.400 34.620,186.040 34.800,185.600 34.800 C 185.160 34.800,184.800 34.980,184.800 35.200 C 184.800 35.420,184.440 35.600,184.000 35.600 C 183.560 35.600,183.200 35.780,183.200 36.000 C 183.200 36.220,182.840 36.400,182.400 36.400 C 181.960 36.400,181.600 36.580,181.600 36.800 C 181.600 37.020,181.229 37.200,180.776 37.200 C 180.323 37.200,180.064 37.380,180.200 37.600 C 180.336 37.820,180.206 38.000,179.912 38.000 C 179.617 38.000,179.117 38.360,178.800 38.800 C 178.483 39.240,178.077 39.600,177.898 39.600 C 177.412 39.600,174.800 42.306,174.800 42.810 C 174.800 43.051,174.620 43.136,174.400 43.000 C 174.180 42.864,174.000 43.033,174.000 43.376 C 174.000 43.719,173.850 44.000,173.668 44.000 C 173.485 44.000,173.080 44.495,172.768 45.100 C 172.455 45.705,171.885 46.549,171.500 46.975 C 171.115 47.402,170.800 47.987,170.800 48.275 C 170.800 48.564,170.620 48.800,170.400 48.800 C 170.180 48.800,170.000 49.149,170.000 49.576 C 170.000 50.003,169.820 50.464,169.600 50.600 C 169.380 50.736,169.200 51.287,169.200 51.824 C 169.200 52.361,169.020 52.800,168.800 52.800 C 168.580 52.800,168.400 53.340,168.400 54.000 C 168.400 54.660,168.220 55.200,168.000 55.200 C 167.780 55.200,167.600 56.100,167.600 57.200 C 167.600 58.300,167.420 59.200,167.200 59.200 C 166.951 59.200,166.800 61.533,166.800 65.400 L 166.800 71.600 154.000 71.600 C 145.733 71.600,141.200 71.742,141.200 72.000 C 141.200 72.220,140.480 72.400,139.600 72.400 C 138.720 72.400,138.000 72.580,138.000 72.800 C 138.000 73.020,137.460 73.200,136.800 73.200 C 136.140 73.200,135.600 73.336,135.600 73.502 C 135.600 73.669,135.082 74.034,134.449 74.314 C 132.826 75.033,129.659 78.319,128.873 80.100 C 128.509 80.925,128.074 81.600,127.906 81.600 C 127.738 81.600,127.600 82.140,127.600 82.800 C 127.600 83.460,127.434 84.000,127.232 84.000 C 127.029 84.000,126.775 85.305,126.667 86.900 C 126.385 91.064,126.031 95.461,125.775 98.000 C 125.653 99.210,125.477 101.280,125.385 102.600 C 125.293 103.920,125.022 107.610,124.784 110.800 C 124.546 113.990,124.261 118.625,124.151 121.100 C 124.041 123.575,123.782 125.600,123.576 125.600 C 123.369 125.600,123.200 126.770,123.200 128.200 L 123.200 130.800 131.752 130.800 L 140.304 130.800 140.554 128.300 C 140.692 126.925,140.871 125.260,140.952 124.600 C 141.033 123.940,141.240 120.115,141.412 116.100 C 141.584 112.085,141.866 108.800,142.038 108.800 C 142.209 108.800,142.453 106.775,142.578 104.300 C 142.703 101.825,142.905 97.775,143.027 95.300 C 143.149 92.825,143.418 90.800,143.624 90.800 C 143.831 90.800,144.000 90.350,144.000 89.800 L 144.000 88.800 155.400 88.800 L 166.800 88.800 166.800 96.200 C 166.800 100.867,166.948 103.600,167.200 103.600 C 167.420 103.600,167.600 103.960,167.600 104.400 C 167.600 104.840,167.759 105.200,167.953 105.200 C 168.148 105.200,168.398 105.550,168.510 105.978 C 168.822 107.172,172.562 108.801,174.975 108.794 C 178.912 108.783,182.453 106.635,183.059 103.892 C 183.193 103.282,183.460 102.686,183.652 102.568 C 183.843 102.450,184.000 99.303,184.000 95.576 L 184.000 88.800 199.200 88.800 L 214.400 88.800 214.400 95.976 C 214.400 100.329,214.557 103.250,214.800 103.400 C 215.020 103.536,215.200 103.921,215.200 104.255 C 215.200 104.589,215.935 105.569,216.833 106.431 C 218.278 107.820,219.067 108.210,220.100 108.047 C 220.265 108.021,220.400 108.180,220.400 108.400 C 220.400 109.028,224.940 108.868,226.583 108.181 C 230.701 106.461,231.600 104.197,231.600 95.551 L 231.600 88.800 243.000 88.800 L 254.400 88.800 254.400 90.776 C 254.400 91.863,254.580 92.864,254.800 93.000 C 255.027 93.141,255.200 95.145,255.200 97.647 C 255.200 100.479,255.343 101.959,255.600 101.800 C 255.858 101.641,256.000 103.188,256.000 106.153 C 256.000 108.788,256.171 110.858,256.400 111.000 C 256.625 111.139,256.800 113.044,256.800 115.344 C 256.800 117.597,256.971 119.611,257.180 119.820 C 257.389 120.029,257.589 122.223,257.626 124.695 C 257.663 127.179,257.851 129.092,258.046 128.971 C 258.241 128.851,258.400 129.213,258.400 129.776 L 258.400 130.800 266.847 130.800 L 275.293 130.800 275.028 128.300 C 274.883 126.925,274.687 124.217,274.594 122.282 C 274.501 120.347,274.345 118.635,274.249 118.479 C 274.152 118.322,274.027 116.485,273.971 114.397 C 273.915 112.309,273.730 110.415,273.559 110.189 C 273.389 109.962,273.217 107.892,273.177 105.589 C 273.138 103.285,272.956 101.114,272.773 100.765 C 272.591 100.416,272.410 98.301,272.371 96.065 C 272.333 93.829,272.144 92.000,271.951 92.000 C 271.758 92.000,271.600 90.481,271.600 88.624 C 271.600 86.767,271.420 85.136,271.200 85.000 C 270.980 84.864,270.800 84.311,270.800 83.772 C 270.800 82.618,269.272 79.200,268.756 79.200 C 268.560 79.200,268.400 78.957,268.400 78.659 C 268.400 78.362,267.872 77.597,267.226 76.959 C 265.439 75.194,264.889 74.800,264.217 74.800 C 263.687 74.800,263.600 73.900,263.600 68.400 L 263.600 62.000 276.200 62.000 L 288.800 62.000 288.800 96.400 L 288.800 130.800 297.400 130.800 L 306.000 130.800 306.000 96.400 L 306.000 62.000 313.400 62.000 L 320.800 62.000 320.800 96.400 L 320.800 130.800 329.400 130.800 L 338.000 130.800 338.000 96.400 L 338.000 62.000 350.400 62.000 L 362.800 62.000 362.800 96.400 L 362.800 130.800 371.400 130.800 L 380.000 130.800 380.000 90.600 C 380.000 64.067,379.864 50.400,379.600 50.400 C 379.380 50.400,379.200 50.125,379.200 49.789 C 379.200 48.872,375.943 45.819,374.800 45.665 C 374.250 45.591,373.629 45.366,373.420 45.165 C 372.775 44.545,255.015 44.726,252.643 45.351 C 250.512 45.913,247.239 48.520,247.214 49.676 C 247.206 50.048,247.020 50.464,246.800 50.600 C 246.550 50.755,246.400 54.737,246.400 61.224 L 246.400 71.600 239.000 71.600 L 231.600 71.600 231.600 65.800 C 231.600 62.200,231.448 60.000,231.200 60.000 C 230.980 60.000,230.800 59.100,230.800 58.000 C 230.800 56.900,230.620 56.000,230.400 56.000 C 230.180 56.000,230.000 55.269,230.000 54.376 C 230.000 53.396,229.842 52.851,229.600 53.000 C 229.373 53.140,229.200 52.804,229.200 52.224 C 229.200 51.661,229.020 51.200,228.800 51.200 C 228.580 51.200,228.400 50.840,228.400 50.400 C 228.400 49.960,228.220 49.600,228.000 49.600 C 227.780 49.600,227.600 49.240,227.600 48.800 C 227.600 48.360,227.420 48.000,227.200 48.000 C 226.980 48.000,226.800 47.640,226.800 47.200 C 226.800 46.760,226.632 46.400,226.427 46.400 C 226.222 46.400,225.927 45.995,225.773 45.500 C 225.408 44.333,218.995 38.000,218.178 38.000 C 217.834 38.000,217.664 37.820,217.800 37.600 C 217.936 37.380,217.767 37.200,217.424 37.200 C 217.081 37.200,216.800 37.020,216.800 36.800 C 216.800 36.580,216.440 36.400,216.000 36.400 C 215.560 36.400,215.200 36.220,215.200 36.000 C 215.200 35.780,214.840 35.600,214.400 35.600 C 213.960 35.600,213.600 35.420,213.600 35.200 C 213.600 34.980,213.240 34.800,212.800 34.800 C 212.360 34.800,212.000 34.620,212.000 34.400 C 212.000 34.180,211.460 34.000,210.800 34.000 C 210.140 34.000,209.600 33.820,209.600 33.600 C 209.600 33.380,208.981 33.200,208.224 33.200 C 207.467 33.200,206.736 33.020,206.600 32.800 C 206.450 32.557,203.529 32.400,199.176 32.400 C 194.659 32.400,192.000 32.548,192.000 32.800 M200.400 49.200 C 200.400 49.420,201.199 49.600,202.176 49.600 C 203.153 49.600,204.064 49.780,204.200 50.000 C 204.336 50.220,204.797 50.400,205.224 50.400 C 205.651 50.400,206.000 50.580,206.000 50.800 C 206.000 51.020,206.283 51.200,206.629 51.200 C 207.406 51.200,212.000 55.845,212.000 56.630 C 212.000 56.944,212.180 57.200,212.400 57.200 C 212.620 57.200,212.800 57.560,212.800 58.000 C 212.800 58.440,212.980 58.800,213.200 58.800 C 213.420 58.800,213.600 59.430,213.600 60.200 C 213.600 60.970,213.780 61.600,214.000 61.600 C 214.245 61.600,214.400 63.533,214.400 66.600 L 214.400 71.600 199.200 71.600 L 184.000 71.600 184.000 66.200 C 184.000 62.867,184.153 60.800,184.400 60.800 C 184.620 60.800,184.800 60.159,184.800 59.376 C 184.800 58.529,184.962 58.053,185.200 58.200 C 185.420 58.336,185.600 58.111,185.600 57.699 C 185.600 57.288,185.960 56.564,186.400 56.092 C 186.840 55.620,187.200 55.128,187.200 54.999 C 187.200 54.693,189.093 52.800,189.399 52.800 C 189.528 52.800,190.020 52.440,190.492 52.000 C 190.964 51.560,191.587 51.200,191.875 51.200 C 192.164 51.200,192.400 51.020,192.400 50.800 C 192.400 50.580,192.760 50.400,193.200 50.400 C 193.640 50.400,194.000 50.220,194.000 50.000 C 194.000 49.780,194.799 49.600,195.776 49.600 C 196.753 49.600,197.664 49.420,197.800 49.200 C 197.936 48.980,198.577 48.800,199.224 48.800 C 199.871 48.800,200.400 48.980,200.400 49.200 M6.200 72.000 C 6.064 72.220,5.423 72.400,4.776 72.400 C 4.129 72.400,3.600 72.580,3.600 72.800 C 3.600 73.020,3.322 73.200,2.982 73.200 C 1.033 73.200,0.206 75.133,0.068 80.015 L -0.064 84.668 1.537 86.334 C 2.417 87.250,3.411 88.000,3.745 88.000 C 4.079 88.000,4.464 88.180,4.600 88.400 C 4.762 88.662,18.204 88.800,43.624 88.800 L 82.400 88.800 82.400 89.976 C 82.400 90.623,82.580 91.264,82.800 91.400 C 83.020 91.536,83.200 92.267,83.200 93.024 C 83.200 93.781,83.380 94.400,83.600 94.400 C 83.820 94.400,84.000 95.030,84.000 95.800 C 84.000 96.570,84.180 97.200,84.400 97.200 C 84.620 97.200,84.800 97.819,84.800 98.576 C 84.800 99.333,84.980 100.064,85.200 100.200 C 85.420 100.336,85.600 101.067,85.600 101.824 C 85.600 102.581,85.780 103.200,86.000 103.200 C 86.220 103.200,86.400 103.830,86.400 104.600 C 86.400 105.370,86.580 106.000,86.800 106.000 C 87.020 106.000,87.200 106.630,87.200 107.400 C 87.200 108.170,87.380 108.800,87.600 108.800 C 87.820 108.800,88.000 109.340,88.000 110.000 C 88.000 110.660,88.180 111.200,88.400 111.200 C 88.620 111.200,88.800 111.920,88.800 112.800 C 88.800 113.680,88.980 114.400,89.200 114.400 C 89.420 114.400,89.600 115.019,89.600 115.776 C 89.600 116.533,89.780 117.264,90.000 117.400 C 90.220 117.536,90.400 118.166,90.400 118.800 C 90.400 119.434,90.561 120.052,90.758 120.174 C 90.955 120.295,91.205 121.071,91.313 121.897 C 91.422 122.724,91.777 124.430,92.101 125.689 C 92.425 126.947,92.594 128.072,92.478 128.189 C 92.362 128.305,92.437 128.400,92.646 128.400 C 92.976 128.400,93.188 129.273,93.302 131.100 C 93.319 131.375,93.483 131.600,93.667 131.600 C 93.850 131.600,94.000 132.219,94.000 132.976 C 94.000 133.733,94.180 134.464,94.400 134.600 C 94.620 134.736,94.800 135.276,94.800 135.800 C 94.800 136.324,94.980 136.864,95.200 137.000 C 95.420 137.136,95.600 137.856,95.600 138.600 C 95.600 139.344,95.780 140.064,96.000 140.200 C 96.220 140.336,96.400 141.067,96.400 141.824 C 96.400 142.581,96.560 143.200,96.756 143.200 C 96.952 143.200,97.227 143.875,97.368 144.700 C 97.990 148.351,98.107 148.800,98.444 148.800 C 98.640 148.800,98.800 149.520,98.800 150.400 C 98.800 151.280,98.980 152.000,99.200 152.000 C 99.420 152.000,99.600 152.630,99.600 153.400 C 99.600 154.170,99.780 154.800,100.000 154.800 C 100.220 154.800,100.400 155.304,100.400 155.920 C 100.400 156.536,100.574 157.214,100.787 157.427 C 100.999 157.639,101.217 158.395,101.272 159.107 C 101.326 159.818,101.512 160.400,101.685 160.400 C 101.858 160.400,102.000 160.929,102.000 161.576 C 102.000 162.223,102.180 162.864,102.400 163.000 C 102.620 163.136,102.800 163.867,102.800 164.624 C 102.800 165.381,102.980 166.000,103.200 166.000 C 103.420 166.000,103.600 166.619,103.600 167.376 C 103.600 168.133,103.780 168.864,104.000 169.000 C 104.220 169.136,104.400 169.867,104.400 170.624 C 104.400 171.381,104.580 172.000,104.800 172.000 C 105.020 172.000,105.200 172.540,105.200 173.200 C 105.200 173.860,105.380 174.400,105.600 174.400 C 105.820 174.400,106.000 175.120,106.000 176.000 C 106.000 176.880,106.180 177.600,106.400 177.600 C 106.620 177.600,106.800 178.331,106.800 179.224 C 106.800 180.204,106.958 180.749,107.200 180.600 C 107.438 180.453,107.600 180.929,107.600 181.776 C 107.600 182.559,107.755 183.200,107.944 183.200 C 108.134 183.200,108.401 184.055,108.539 185.100 C 108.902 187.847,109.011 188.344,109.322 188.655 C 109.475 188.808,109.600 189.533,109.600 190.267 C 109.600 191.000,109.760 191.600,109.956 191.600 C 110.293 191.600,110.411 192.051,111.033 195.704 C 111.173 196.531,111.449 197.306,111.644 197.427 C 111.840 197.548,112.000 198.166,112.000 198.800 C 112.000 199.434,112.180 200.064,112.400 200.200 C 112.620 200.336,112.800 201.056,112.800 201.800 C 112.800 202.544,112.980 203.264,113.200 203.400 C 113.420 203.536,113.600 204.166,113.600 204.800 C 113.600 205.434,113.780 206.064,114.000 206.200 C 114.220 206.336,114.400 206.977,114.400 207.624 C 114.400 208.271,114.580 208.800,114.800 208.800 C 115.020 208.800,115.200 209.520,115.200 210.400 C 115.200 211.280,115.380 212.000,115.600 212.000 C 115.820 212.000,116.000 212.529,116.000 213.176 C 116.000 213.823,116.180 214.464,116.400 214.600 C 116.620 214.736,116.800 215.467,116.800 216.224 C 116.800 216.981,116.980 217.600,117.200 217.600 C 117.420 217.600,117.600 218.320,117.600 219.200 C 117.600 220.080,117.780 220.800,118.000 220.800 C 118.220 220.800,118.400 221.329,118.400 221.976 C 118.400 222.623,118.580 223.264,118.800 223.400 C 119.020 223.536,119.200 224.177,119.200 224.824 C 119.200 225.471,119.380 226.000,119.600 226.000 C 119.820 226.000,120.000 226.720,120.000 227.600 C 120.000 228.480,120.180 229.200,120.400 229.200 C 120.620 229.200,120.800 229.920,120.800 230.800 C 120.800 231.680,120.980 232.400,121.200 232.400 C 121.420 232.400,121.600 232.940,121.600 233.600 C 121.600 234.260,121.780 234.800,122.000 234.800 C 122.220 234.800,122.400 235.419,122.400 236.176 C 122.400 236.933,122.580 237.664,122.800 237.800 C 123.020 237.936,123.200 238.566,123.200 239.200 C 123.200 239.834,123.380 240.464,123.600 240.600 C 123.820 240.736,124.000 241.377,124.000 242.024 C 124.000 242.671,124.162 243.200,124.360 243.200 C 124.558 243.200,124.813 243.965,124.927 244.900 C 125.275 247.743,125.547 249.036,126.181 250.857 C 126.515 251.816,126.791 253.095,126.794 253.700 C 126.797 254.305,126.980 254.800,127.200 254.800 C 127.420 254.800,127.600 255.419,127.600 256.176 C 127.600 256.933,127.780 257.664,128.000 257.800 C 128.220 257.936,128.400 258.577,128.400 259.224 C 128.400 259.871,128.580 260.400,128.800 260.400 C 129.020 260.400,129.200 261.019,129.200 261.776 C 129.200 262.533,129.380 263.264,129.600 263.400 C 129.820 263.536,130.000 264.267,130.000 265.024 C 130.000 265.781,130.180 266.400,130.400 266.400 C 130.620 266.400,130.800 267.030,130.800 267.800 C 130.800 268.570,130.980 269.200,131.200 269.200 C 131.420 269.200,131.600 269.830,131.600 270.600 C 131.600 271.370,131.780 272.000,132.000 272.000 C 132.220 272.000,132.400 272.720,132.400 273.600 C 132.400 274.480,132.580 275.200,132.800 275.200 C 133.020 275.200,133.200 275.740,133.200 276.400 C 133.200 277.060,133.380 277.600,133.600 277.600 C 133.820 277.600,134.000 278.320,134.000 279.200 C 134.000 280.080,134.180 280.800,134.400 280.800 C 134.620 280.800,134.800 281.520,134.800 282.400 C 134.800 283.280,134.980 284.000,135.200 284.000 C 135.420 284.000,135.600 284.540,135.600 285.200 C 135.600 285.860,135.780 286.400,136.000 286.400 C 136.220 286.400,136.400 287.131,136.400 288.024 C 136.400 289.004,136.558 289.549,136.800 289.400 C 137.038 289.253,137.200 289.721,137.200 290.553 C 137.200 291.323,137.380 292.064,137.600 292.200 C 137.820 292.336,138.000 292.977,138.000 293.624 C 138.000 294.271,138.180 294.800,138.400 294.800 C 138.620 294.800,138.800 295.520,138.800 296.400 C 138.800 297.280,138.980 298.000,139.200 298.000 C 139.420 298.000,139.600 298.720,139.600 299.600 C 139.600 300.480,139.780 301.200,140.000 301.200 C 140.220 301.200,140.400 301.740,140.400 302.400 C 140.400 303.060,140.562 303.600,140.760 303.600 C 140.958 303.600,141.206 304.365,141.312 305.300 C 141.418 306.235,141.772 308.030,142.097 309.289 C 142.423 310.547,142.594 311.672,142.478 311.789 C 142.362 311.905,142.477 312.000,142.733 312.000 C 142.990 312.000,143.200 312.540,143.200 313.200 C 143.200 313.860,143.335 314.405,143.500 314.411 C 143.665 314.417,144.241 315.137,144.780 316.011 C 145.336 316.911,146.073 317.600,146.480 317.600 C 147.013 317.600,147.200 317.911,147.200 318.800 C 147.200 319.460,147.020 320.000,146.800 320.000 C 146.580 320.000,146.400 320.360,146.400 320.800 C 146.400 321.240,146.220 321.600,146.000 321.600 C 145.780 321.600,145.600 321.960,145.600 322.400 C 145.600 322.840,145.459 323.200,145.287 323.200 C 145.115 323.200,144.934 323.685,144.885 324.278 C 144.836 324.870,144.640 325.455,144.450 325.578 C 143.549 326.156,142.748 340.508,143.570 341.330 C 143.807 341.567,144.000 342.444,144.000 343.280 C 144.000 344.116,144.180 344.800,144.400 344.800 C 144.620 344.800,144.800 345.340,144.800 346.000 C 144.800 346.660,144.980 347.200,145.200 347.200 C 145.420 347.200,145.600 347.560,145.600 348.000 C 145.600 348.440,145.780 348.800,146.000 348.800 C 146.220 348.800,146.400 349.160,146.400 349.600 C 146.400 350.040,146.580 350.400,146.800 350.400 C 147.020 350.400,147.200 350.760,147.200 351.200 C 147.200 351.640,147.380 352.000,147.600 352.000 C 147.820 352.000,148.000 352.294,148.000 352.653 C 148.000 353.012,148.316 353.597,148.703 353.953 C 149.089 354.309,149.660 355.095,149.970 355.700 C 150.281 356.305,150.671 356.800,150.836 356.800 C 151.002 356.800,152.342 357.970,153.815 359.400 C 155.288 360.830,156.702 362.000,156.958 362.000 C 157.214 362.000,157.683 362.360,158.000 362.800 C 158.317 363.240,158.897 363.600,159.288 363.600 C 159.680 363.600,160.000 363.746,160.000 363.925 C 160.000 364.104,160.630 364.498,161.400 364.800 C 162.170 365.102,162.800 365.496,162.800 365.675 C 162.800 365.854,163.329 366.000,163.976 366.000 C 164.623 366.000,165.264 366.180,165.400 366.400 C 165.536 366.620,166.267 366.800,167.024 366.800 C 167.781 366.800,168.400 366.980,168.400 367.200 C 168.400 367.742,182.665 367.742,183.000 367.200 C 183.136 366.980,183.867 366.800,184.624 366.800 C 185.381 366.800,186.000 366.620,186.000 366.400 C 186.000 366.180,186.551 366.000,187.224 366.000 C 187.937 366.000,188.344 365.833,188.200 365.600 C 188.060 365.373,188.396 365.200,188.976 365.200 C 189.539 365.200,190.000 365.020,190.000 364.800 C 190.000 364.580,190.360 364.400,190.800 364.400 C 191.240 364.400,191.600 364.220,191.600 364.000 C 191.600 363.780,191.843 363.600,192.141 363.600 C 192.438 363.600,193.246 363.060,193.937 362.400 C 194.628 361.740,195.353 361.200,195.550 361.200 C 196.013 361.200,201.200 356.168,201.200 355.719 C 201.200 355.531,201.560 355.117,202.000 354.800 C 202.440 354.483,202.800 353.918,202.800 353.545 C 202.800 353.172,202.950 352.807,203.133 352.733 C 203.678 352.515,206.000 348.014,206.000 347.175 C 206.000 346.749,206.180 346.400,206.400 346.400 C 206.620 346.400,206.800 345.871,206.800 345.224 C 206.800 344.577,206.942 343.959,207.116 343.852 C 208.083 343.254,208.087 327.888,207.121 326.560 C 206.945 326.317,206.761 325.642,206.713 325.060 C 206.665 324.477,206.485 324.000,206.313 324.000 C 206.141 324.000,206.000 323.640,206.000 323.200 C 206.000 322.760,205.820 322.400,205.600 322.400 C 205.380 322.400,205.200 322.040,205.200 321.600 C 205.200 321.160,205.020 320.800,204.800 320.800 C 204.580 320.800,204.400 320.440,204.400 320.000 C 204.400 319.205,204.667 319.200,251.600 319.200 C 282.800 319.200,298.800 319.336,298.800 319.600 C 298.800 319.820,298.620 320.000,298.400 320.000 C 298.180 320.000,298.000 320.270,298.000 320.600 C 298.000 320.930,297.820 321.200,297.600 321.200 C 297.380 321.200,297.200 321.650,297.200 322.200 C 297.200 322.750,297.020 323.200,296.800 323.200 C 296.580 323.200,296.400 323.549,296.400 323.976 C 296.400 324.403,296.220 324.864,296.000 325.000 C 295.780 325.136,295.600 325.856,295.600 326.600 C 295.600 327.344,295.420 328.064,295.200 328.200 C 294.663 328.532,294.663 341.868,295.200 342.200 C 295.420 342.336,295.600 343.157,295.600 344.024 C 295.600 344.891,295.780 345.600,296.000 345.600 C 296.220 345.600,296.400 346.050,296.400 346.600 C 296.400 347.150,296.580 347.600,296.800 347.600 C 297.020 347.600,297.200 347.865,297.200 348.189 C 297.200 348.513,297.658 349.548,298.218 350.489 C 298.777 351.430,299.338 352.515,299.464 352.900 C 299.590 353.285,299.852 353.600,300.047 353.600 C 300.241 353.600,300.400 353.855,300.400 354.166 C 300.400 354.478,301.145 355.423,302.056 356.266 C 302.967 357.110,304.634 358.700,305.762 359.800 C 306.890 360.900,308.305 362.055,308.906 362.368 C 309.508 362.680,310.000 363.085,310.000 363.268 C 310.000 363.450,310.270 363.600,310.600 363.600 C 310.930 363.600,311.200 363.780,311.200 364.000 C 311.200 364.220,311.560 364.400,312.000 364.400 C 312.440 364.400,312.800 364.580,312.800 364.800 C 312.800 365.020,313.160 365.200,313.600 365.200 C 314.040 365.200,314.400 365.380,314.400 365.600 C 314.400 365.820,314.940 366.000,315.600 366.000 C 316.260 366.000,316.800 366.180,316.800 366.400 C 316.800 366.620,317.419 366.800,318.176 366.800 C 318.933 366.800,319.664 366.980,319.800 367.200 C 320.135 367.742,334.800 367.742,334.800 367.200 C 334.800 366.980,335.340 366.800,336.000 366.800 C 336.660 366.800,337.200 366.620,337.200 366.400 C 337.200 366.180,337.740 366.000,338.400 366.000 C 339.060 366.000,339.600 365.864,339.600 365.698 C 339.600 365.531,340.185 365.156,340.900 364.864 C 343.176 363.934,344.000 363.474,344.000 363.132 C 344.000 362.950,344.276 362.800,344.613 362.800 C 344.951 362.800,345.861 362.166,346.636 361.391 C 347.442 360.585,348.250 360.098,348.523 360.255 C 348.785 360.405,348.895 360.409,348.766 360.264 C 348.638 360.118,349.628 358.863,350.966 357.474 C 352.305 356.085,353.655 354.465,353.968 353.874 C 354.280 353.283,354.685 352.800,354.868 352.800 C 355.050 352.800,355.200 352.548,355.200 352.241 C 355.200 351.933,355.741 350.653,356.402 349.396 C 357.063 348.139,357.694 346.600,357.804 345.976 C 357.914 345.352,358.183 344.370,358.402 343.795 C 358.621 343.219,358.800 341.986,358.800 341.054 C 358.800 340.122,358.993 339.167,359.230 338.930 C 360.288 337.872,358.463 323.930,357.086 322.553 C 356.929 322.395,356.800 321.937,356.800 321.533 C 356.800 321.130,356.620 320.800,356.400 320.800 C 356.180 320.800,356.000 320.440,356.000 320.000 C 356.000 319.560,355.839 319.200,355.643 319.200 C 354.926 319.200,354.813 317.970,355.507 317.713 C 356.375 317.391,357.501 316.142,357.815 315.152 C 357.946 314.739,358.222 314.400,358.427 314.400 C 359.586 314.400,358.662 306.033,357.400 305.106 C 357.180 304.944,357.148 304.809,357.329 304.806 C 357.818 304.797,356.528 303.600,356.029 303.600 C 355.793 303.600,355.600 303.456,355.600 303.280 C 355.600 302.031,353.188 302.000,255.490 302.000 L 158.036 302.000 157.796 300.500 C 157.664 299.675,157.386 298.687,157.178 298.305 C 156.970 297.923,156.800 297.068,156.800 296.405 C 156.800 295.742,156.620 295.200,156.400 295.200 C 156.180 295.200,156.000 294.581,156.000 293.824 C 156.000 293.067,155.820 292.336,155.600 292.200 C 155.380 292.064,155.200 291.423,155.200 290.776 C 155.200 290.129,155.020 289.600,154.800 289.600 C 154.580 289.600,154.400 288.981,154.400 288.224 C 154.400 287.467,154.240 286.748,154.044 286.627 C 153.849 286.506,153.579 285.776,153.444 285.004 C 153.310 284.232,153.090 282.970,152.956 282.200 C 152.822 281.430,152.552 280.800,152.356 280.800 C 152.160 280.800,152.000 280.181,152.000 279.424 C 152.000 278.667,151.820 277.936,151.600 277.800 C 151.380 277.664,151.200 277.034,151.200 276.400 C 151.200 275.766,151.020 275.136,150.800 275.000 C 150.580 274.864,150.400 274.223,150.400 273.576 C 150.400 272.929,150.257 272.400,150.082 272.400 C 149.907 272.400,149.719 271.725,149.664 270.900 C 149.610 270.075,149.393 269.340,149.182 269.267 C 148.972 269.193,148.800 268.428,148.800 267.567 C 148.800 266.705,148.620 266.000,148.400 266.000 C 148.180 266.000,148.000 265.640,148.000 265.200 C 148.000 264.760,147.752 264.400,147.449 264.400 C 146.395 264.400,143.738 256.503,142.905 250.896 C 142.799 250.179,142.551 249.494,142.356 249.373 C 142.160 249.252,142.000 248.634,142.000 248.000 C 142.000 247.366,141.820 246.736,141.600 246.600 C 141.380 246.464,141.200 245.834,141.200 245.200 C 141.200 244.566,141.020 243.936,140.800 243.800 C 140.580 243.664,140.400 242.944,140.400 242.200 C 140.400 241.456,140.220 240.736,140.000 240.600 C 139.780 240.464,139.600 239.834,139.600 239.200 C 139.600 238.566,139.420 237.936,139.200 237.800 C 138.980 237.664,138.800 237.034,138.800 236.400 C 138.800 235.766,138.620 235.136,138.400 235.000 C 138.180 234.864,138.000 234.234,138.000 233.600 C 138.000 232.966,137.820 232.336,137.600 232.200 C 137.380 232.064,137.200 231.344,137.200 230.600 C 137.200 229.856,137.020 229.136,136.800 229.000 C 136.580 228.864,136.400 228.234,136.400 227.600 C 136.400 226.966,136.220 226.336,136.000 226.200 C 135.780 226.064,135.600 225.434,135.600 224.800 C 135.600 224.166,135.420 223.536,135.200 223.400 C 134.980 223.264,134.800 222.634,134.800 222.000 C 134.800 221.366,134.640 220.748,134.444 220.627 C 134.249 220.506,133.995 219.821,133.881 219.104 C 133.768 218.387,133.466 217.080,133.211 216.200 C 132.956 215.320,132.591 213.970,132.400 213.200 C 132.046 211.771,131.901 211.242,130.431 206.000 C 128.984 200.845,127.515 195.055,127.309 193.696 C 127.201 192.979,126.951 192.294,126.756 192.173 C 126.560 192.052,126.400 191.333,126.400 190.576 C 126.400 189.819,126.220 189.200,126.000 189.200 C 125.780 189.200,125.600 188.581,125.600 187.824 C 125.600 187.067,125.420 186.336,125.200 186.200 C 124.980 186.064,124.800 185.434,124.800 184.800 C 124.800 184.166,124.620 183.536,124.400 183.400 C 124.180 183.264,124.000 182.634,124.000 182.000 C 124.000 181.366,123.820 180.736,123.600 180.600 C 123.380 180.464,123.200 179.733,123.200 178.976 C 123.200 178.219,123.040 177.600,122.844 177.600 C 122.648 177.600,122.373 176.925,122.232 176.100 C 121.614 172.473,121.492 171.980,121.156 171.773 C 120.960 171.652,120.800 171.034,120.800 170.400 C 120.800 169.766,120.620 169.136,120.400 169.000 C 120.180 168.864,120.000 168.234,120.000 167.600 C 120.000 166.966,119.840 166.348,119.644 166.227 C 119.308 166.019,119.185 165.524,118.567 161.896 C 118.427 161.069,118.151 160.294,117.956 160.173 C 117.760 160.052,117.600 159.434,117.600 158.800 C 117.600 158.166,117.440 157.548,117.244 157.427 C 117.049 157.306,116.795 156.621,116.681 155.904 C 116.568 155.187,116.288 153.970,116.060 153.200 C 115.344 150.785,114.759 148.651,114.414 147.200 C 114.230 146.430,113.701 144.450,113.238 142.800 C 111.210 135.573,110.353 131.487,110.776 131.064 C 111.314 130.526,111.333 128.400,110.800 128.400 C 110.580 128.400,110.400 127.871,110.400 127.224 C 110.400 126.577,110.220 125.936,110.000 125.800 C 109.780 125.664,109.600 125.023,109.600 124.376 C 109.600 123.729,109.438 123.200,109.240 123.200 C 109.042 123.200,108.789 122.435,108.677 121.500 C 108.566 120.565,108.265 118.900,108.009 117.800 C 107.753 116.700,107.506 115.620,107.460 115.400 C 107.415 115.180,107.252 114.800,107.099 114.555 C 106.946 114.311,106.778 113.546,106.725 112.855 C 106.673 112.165,106.488 111.600,106.315 111.600 C 106.142 111.600,106.000 111.071,106.000 110.424 C 106.000 109.777,105.820 109.136,105.600 109.000 C 105.380 108.864,105.200 108.133,105.200 107.376 C 105.200 106.619,105.020 106.000,104.800 106.000 C 104.580 106.000,104.400 105.280,104.400 104.400 C 104.400 103.520,104.220 102.800,104.000 102.800 C 103.780 102.800,103.600 102.181,103.600 101.424 C 103.600 100.667,103.420 99.936,103.200 99.800 C 102.980 99.664,102.800 99.124,102.800 98.600 C 102.800 98.076,102.620 97.536,102.400 97.400 C 102.180 97.264,102.000 96.533,102.000 95.776 C 102.000 95.019,101.820 94.400,101.600 94.400 C 101.380 94.400,101.200 93.680,101.200 92.800 C 101.200 91.920,101.020 91.200,100.800 91.200 C 100.580 91.200,100.400 90.660,100.400 90.000 C 100.400 89.340,100.220 88.800,100.000 88.800 C 99.780 88.800,99.600 88.080,99.600 87.200 C 99.600 86.320,99.420 85.600,99.200 85.600 C 98.980 85.600,98.800 85.071,98.800 84.424 C 98.800 83.777,98.620 83.136,98.400 83.000 C 98.180 82.864,98.000 82.133,98.000 81.376 C 98.000 80.619,97.820 80.000,97.600 80.000 C 97.380 80.000,97.200 79.458,97.200 78.795 C 97.200 76.632,93.599 72.400,91.760 72.400 C 91.258 72.400,90.736 72.220,90.600 72.000 C 90.438 71.737,75.937 71.600,48.400 71.600 C 20.863 71.600,6.362 71.737,6.200 72.000 M165.000 157.600 C 164.864 157.820,164.397 158.000,163.963 158.000 C 163.529 158.000,162.594 158.596,161.887 159.325 C 158.328 162.991,158.777 167.808,162.941 170.638 L 164.358 171.600 251.384 171.600 C 320.274 171.600,338.593 171.496,339.283 171.100 C 342.659 169.165,344.526 163.248,342.407 161.200 C 342.293 161.090,342.005 160.640,341.767 160.200 C 341.529 159.760,340.944 159.222,340.467 159.005 C 339.990 158.788,339.600 158.473,339.600 158.305 C 339.600 158.137,339.251 158.000,338.824 158.000 C 338.397 158.000,337.936 157.820,337.800 157.600 C 337.458 157.046,165.342 157.046,165.000 157.600 M171.600 190.399 C 171.270 190.613,170.505 190.791,169.900 190.794 C 169.295 190.797,168.800 190.980,168.800 191.200 C 168.800 191.420,168.612 191.600,168.382 191.600 C 167.880 191.600,166.395 193.105,165.700 194.317 C 164.194 196.944,166.110 203.600,168.371 203.600 C 168.607 203.600,168.800 203.760,168.800 203.956 C 168.800 204.920,328.423 205.571,332.333 204.623 C 334.013 204.215,337.200 201.256,337.200 200.104 C 337.200 199.633,337.380 199.136,337.600 199.000 C 337.820 198.864,338.000 198.234,338.000 197.600 C 338.000 196.966,337.820 196.336,337.600 196.200 C 337.380 196.064,337.200 195.567,337.200 195.096 C 337.200 193.943,334.012 190.984,332.333 190.578 C 330.352 190.099,172.334 189.923,171.600 190.399 M174.039 224.433 C 171.321 226.089,170.016 229.312,170.766 232.511 C 171.274 234.676,173.485 237.199,174.876 237.200 C 175.248 237.200,175.664 237.380,175.800 237.600 C 176.142 238.154,326.658 238.154,327.000 237.600 C 327.136 237.380,327.597 237.200,328.024 237.200 C 328.451 237.200,328.800 237.050,328.800 236.868 C 328.800 236.685,329.235 236.302,329.768 236.017 C 330.786 235.472,332.400 232.148,332.400 230.596 C 332.400 228.573,329.816 224.400,328.564 224.400 C 328.254 224.400,328.000 224.220,328.000 224.000 C 328.000 223.735,302.301 223.601,251.700 223.601 L 175.400 223.603 174.039 224.433 M177.200 320.400 C 177.200 320.620,177.772 320.800,178.472 320.800 C 179.929 320.800,182.400 321.605,182.400 322.080 C 182.400 322.256,182.716 322.400,183.103 322.400 C 184.018 322.400,188.800 326.882,188.800 327.740 C 188.800 328.103,188.980 328.400,189.200 328.400 C 189.420 328.400,189.600 328.760,189.600 329.200 C 189.600 329.640,189.780 330.000,190.000 330.000 C 190.220 330.000,190.400 330.731,190.400 331.624 C 190.400 332.604,190.558 333.149,190.800 333.000 C 191.052 332.844,191.200 333.788,191.200 335.553 C 191.200 337.093,191.020 338.464,190.800 338.600 C 190.580 338.736,190.400 339.377,190.400 340.024 C 190.400 340.671,190.220 341.200,190.000 341.200 C 189.780 341.200,189.600 341.571,189.600 342.024 C 189.600 342.477,189.420 342.736,189.200 342.600 C 188.980 342.464,188.800 342.633,188.800 342.976 C 188.800 343.319,188.620 343.600,188.400 343.600 C 188.180 343.600,188.000 343.785,188.000 344.011 C 188.000 344.688,184.652 347.821,183.279 348.429 C 182.576 348.741,182.000 349.131,182.000 349.298 C 182.000 349.464,181.651 349.600,181.224 349.600 C 180.797 349.600,180.336 349.780,180.200 350.000 C 180.060 350.227,178.063 350.400,175.576 350.400 C 172.925 350.400,171.200 350.242,171.200 350.000 C 171.200 349.780,170.750 349.600,170.200 349.600 C 169.650 349.600,169.200 349.450,169.200 349.268 C 169.200 349.085,168.705 348.681,168.100 348.371 C 166.810 347.710,162.800 343.803,162.800 343.209 C 162.800 342.984,162.620 342.800,162.400 342.800 C 162.180 342.800,162.000 342.440,162.000 342.000 C 162.000 341.560,161.820 341.200,161.600 341.200 C 161.380 341.200,161.200 340.840,161.200 340.400 C 161.200 339.960,161.020 339.600,160.800 339.600 C 160.560 339.600,160.400 338.000,160.400 335.600 C 160.400 333.200,160.560 331.600,160.800 331.600 C 161.020 331.600,161.200 331.060,161.200 330.400 C 161.200 329.740,161.380 329.200,161.600 329.200 C 161.820 329.200,162.000 328.880,162.000 328.488 C 162.000 328.097,162.360 327.517,162.800 327.200 C 163.240 326.883,163.600 326.380,163.600 326.083 C 163.600 325.361,164.351 324.652,166.020 323.796 C 166.779 323.407,167.490 322.978,167.600 322.844 C 167.987 322.372,169.596 321.600,170.195 321.600 C 170.528 321.600,170.800 321.420,170.800 321.200 C 170.800 320.980,171.520 320.800,172.400 320.800 C 173.280 320.800,174.000 320.620,174.000 320.400 C 174.000 320.180,174.720 320.000,175.600 320.000 C 176.480 320.000,177.200 320.180,177.200 320.400 M329.000 320.400 C 329.136 320.620,329.867 320.800,330.624 320.800 C 331.381 320.800,332.000 320.980,332.000 321.200 C 332.000 321.420,332.450 321.600,333.000 321.600 C 333.550 321.600,334.000 321.751,334.000 321.936 C 334.000 322.120,334.457 322.480,335.015 322.734 C 335.573 322.988,336.297 323.422,336.623 323.698 C 338.767 325.511,339.600 326.382,339.600 326.814 C 339.600 327.084,339.934 327.597,340.342 327.953 C 340.750 328.309,341.188 329.140,341.316 329.800 C 341.444 330.460,341.750 331.900,341.997 333.000 C 342.604 335.709,341.700 342.000,340.703 342.000 C 340.536 342.000,340.400 342.371,340.400 342.824 C 340.400 343.277,340.220 343.536,340.000 343.400 C 339.780 343.264,339.600 343.433,339.600 343.776 C 339.600 344.119,339.420 344.400,339.200 344.400 C 338.980 344.400,338.800 344.598,338.800 344.840 C 338.800 345.336,336.492 347.600,335.986 347.600 C 335.805 347.600,335.412 347.825,335.113 348.100 C 334.263 348.882,332.870 349.600,332.205 349.600 C 331.872 349.600,331.600 349.780,331.600 350.000 C 331.600 350.242,329.867 350.400,327.200 350.400 C 324.533 350.400,322.800 350.242,322.800 350.000 C 322.800 349.780,322.438 349.600,321.995 349.600 C 321.043 349.600,319.667 348.877,318.757 347.900 C 318.399 347.515,317.991 347.200,317.850 347.200 C 317.322 347.200,315.200 345.046,315.200 344.510 C 315.200 344.204,315.036 344.054,314.835 344.179 C 314.634 344.303,314.230 343.864,313.937 343.202 C 313.644 342.541,313.269 342.000,313.102 342.000 C 312.936 342.000,312.800 341.460,312.800 340.800 C 312.800 340.140,312.620 339.600,312.400 339.600 C 312.159 339.600,312.000 337.941,312.000 335.424 C 312.000 333.071,312.175 331.139,312.400 331.000 C 312.620 330.864,312.800 330.403,312.800 329.976 C 312.800 329.549,312.980 329.200,313.200 329.200 C 313.420 329.200,313.600 328.840,313.600 328.400 C 313.600 327.960,313.780 327.600,314.000 327.600 C 314.220 327.600,314.402 327.285,314.404 326.900 C 314.406 326.515,314.977 325.750,315.674 325.200 C 316.371 324.650,317.141 324.020,317.386 323.800 C 317.822 323.408,318.322 323.104,321.067 321.562 C 321.814 321.143,323.049 320.800,323.812 320.800 C 324.575 320.800,325.200 320.620,325.200 320.400 C 325.200 320.180,325.999 320.000,326.976 320.000 C 327.953 320.000,328.864 320.180,329.000 320.400 " stroke="none" fill="#04048c" fill-rule="evenodd"></path><path id="path4" d="M127.500 131.098 C 129.755 131.170,133.445 131.170,135.700 131.098 C 137.955 131.027,136.110 130.969,131.600 130.969 C 127.090 130.969,125.245 131.027,127.500 131.098 M262.721 131.099 C 264.988 131.170,268.588 131.170,270.721 131.098 C 272.855 131.026,271.000 130.968,266.600 130.968 C 262.200 130.968,260.455 131.027,262.721 131.099 M293.521 131.099 C 295.788 131.170,299.388 131.170,301.521 131.098 C 303.655 131.026,301.800 130.968,297.400 130.968 C 293.000 130.968,291.255 131.027,293.521 131.099 M325.100 131.098 C 327.355 131.170,331.045 131.170,333.300 131.098 C 335.555 131.027,333.710 130.969,329.200 130.969 C 324.690 130.969,322.845 131.027,325.100 131.098 M367.921 131.099 C 370.188 131.170,373.788 131.170,375.921 131.098 C 378.055 131.026,376.200 130.968,371.800 130.968 C 367.400 130.968,365.655 131.027,367.921 131.099 M111.844 137.800 C 112.173 139.271,112.402 139.590,112.394 138.567 C 112.391 138.145,112.205 137.530,111.982 137.200 C 111.685 136.762,111.648 136.924,111.844 137.800 M112.644 140.600 C 112.973 142.071,113.202 142.390,113.194 141.367 C 113.191 140.945,113.005 140.330,112.782 140.000 C 112.485 139.562,112.448 139.724,112.644 140.600 M114.406 147.233 C 114.409 147.765,114.589 148.470,114.806 148.800 C 115.082 149.222,115.123 148.985,114.942 148.000 C 114.625 146.275,114.398 145.949,114.406 147.233 M115.206 150.233 C 115.209 150.655,115.395 151.270,115.618 151.600 C 115.915 152.038,115.952 151.876,115.756 151.000 C 115.427 149.529,115.198 149.210,115.206 150.233 M116.006 153.033 C 116.009 153.455,116.195 154.070,116.418 154.400 C 116.715 154.838,116.752 154.676,116.556 153.800 C 116.227 152.329,115.998 152.010,116.006 153.033 M162.000 170.327 C 162.000 170.516,162.450 170.877,163.000 171.127 C 163.550 171.378,164.000 171.517,164.000 171.437 C 164.000 171.357,163.550 170.997,163.000 170.637 C 162.450 170.276,162.000 170.137,162.000 170.327 M208.532 171.900 C 232.255 171.957,270.955 171.957,294.532 171.900 C 318.109 171.843,298.700 171.796,251.400 171.796 C 204.100 171.796,184.809 171.843,208.532 171.900 M331.200 190.400 C 331.530 190.613,332.070 190.788,332.400 190.788 C 332.933 190.788,332.933 190.745,332.400 190.400 C 332.070 190.187,331.530 190.012,331.200 190.012 C 330.667 190.012,330.667 190.055,331.200 190.400 M335.634 192.647 C 336.165 193.333,336.680 193.823,336.779 193.735 C 336.877 193.647,336.443 193.086,335.813 192.488 L 334.669 191.400 335.634 192.647 M164.909 197.600 C 164.909 198.590,164.987 198.995,165.082 198.500 C 165.178 198.005,165.178 197.195,165.082 196.700 C 164.987 196.205,164.909 196.610,164.909 197.600 M128.244 197.800 C 128.573 199.271,128.802 199.590,128.794 198.567 C 128.791 198.145,128.605 197.530,128.382 197.200 C 128.085 196.762,128.048 196.924,128.244 197.800 M129.044 201.000 C 129.373 202.471,129.602 202.790,129.594 201.767 C 129.591 201.345,129.405 200.730,129.182 200.400 C 128.885 199.962,128.848 200.124,129.044 201.000 M165.436 200.800 C 166.014 201.976,167.290 203.643,167.472 203.461 C 167.574 203.359,167.378 202.944,167.036 202.538 C 166.695 202.132,166.128 201.440,165.778 201.000 C 165.427 200.560,165.274 200.470,165.436 200.800 M335.005 202.925 C 334.128 203.807,333.768 204.336,334.205 204.099 C 335.159 203.582,337.508 201.175,336.975 201.260 C 336.769 201.293,335.882 202.042,335.005 202.925 M129.844 203.800 C 130.173 205.271,130.402 205.590,130.394 204.567 C 130.391 204.145,130.205 203.530,129.982 203.200 C 129.685 202.762,129.648 202.924,129.844 203.800 M170.400 204.800 C 170.730 205.013,171.270 205.188,171.600 205.188 C 172.133 205.188,172.133 205.145,171.600 204.800 C 171.270 204.587,170.730 204.412,170.400 204.412 C 169.867 204.412,169.867 204.455,170.400 204.800 M331.200 204.800 C 330.667 205.145,330.667 205.188,331.200 205.188 C 331.530 205.188,332.070 205.013,332.400 204.800 C 332.933 204.455,332.933 204.412,332.400 204.412 C 332.070 204.412,331.530 204.587,331.200 204.800 M130.662 206.800 C 130.798 207.570,131.062 208.470,131.248 208.800 C 131.452 209.161,131.488 208.843,131.338 208.000 C 131.202 207.230,130.938 206.330,130.752 206.000 C 130.548 205.639,130.512 205.957,130.662 206.800 M132.406 213.433 C 132.409 213.855,132.595 214.470,132.818 214.800 C 133.115 215.238,133.152 215.076,132.956 214.200 C 132.627 212.729,132.398 212.410,132.406 213.433 M133.206 216.233 C 133.209 216.655,133.395 217.270,133.618 217.600 C 133.915 218.038,133.952 217.876,133.756 217.000 C 133.427 215.529,133.198 215.210,133.206 216.233 M134.028 219.476 C 134.013 219.958,134.180 220.464,134.400 220.600 C 134.873 220.892,134.873 220.501,134.400 219.400 C 134.069 218.629,134.055 218.631,134.028 219.476 M213.868 223.500 C 234.366 223.557,268.026 223.557,288.668 223.500 C 309.311 223.443,292.540 223.396,251.400 223.396 C 210.260 223.396,193.371 223.443,213.868 223.500 M330.073 225.377 C 330.444 225.830,331.028 226.740,331.371 227.400 C 331.714 228.060,331.996 228.315,331.998 227.967 C 331.999 227.618,331.415 226.708,330.700 225.943 C 329.985 225.179,329.703 224.924,330.073 225.377 M170.649 227.815 C 170.512 228.173,170.418 228.856,170.441 229.333 C 170.467 229.881,170.603 229.686,170.810 228.803 C 171.160 227.316,171.065 226.733,170.649 227.815 M331.667 233.180 C 331.433 233.851,331.327 234.400,331.431 234.400 C 331.701 234.400,332.456 232.322,332.257 232.124 C 332.167 232.033,331.901 232.508,331.667 233.180 M329.429 236.229 C 329.005 236.538,328.736 236.869,328.830 236.963 C 328.924 237.057,329.348 236.881,329.771 236.571 C 330.195 236.262,330.464 235.931,330.370 235.837 C 330.276 235.743,329.852 235.919,329.429 236.229 M145.444 261.000 C 145.773 262.471,146.002 262.790,145.994 261.767 C 145.991 261.345,145.805 260.730,145.582 260.400 C 145.285 259.962,145.248 260.124,145.444 261.000 " stroke="none" fill="#161e94" fill-rule="evenodd"></path></g></svg>